<svg xmlns="http://www.w3.org/2000/svg" xmlns:xlink="http://www.w3.org/1999/xlink" width="500" zoomAndPan="magnify" viewBox="0 0 375 374.999991" height="500" preserveAspectRatio="xMidYMid meet" version="1.0"><defs><clipPath id="1af1ee8ca4"><path d="M 28 18 L 347 18 L 347 357 L 28 357 Z M 28 18 " clip-rule="nonzero"/></clipPath><clipPath id="06c400126b"><path d="M -50.183594 142.03125 L 266.507812 -41.441406 L 425.542969 233.070312 L 108.851562 416.542969 Z M -50.183594 142.03125 " clip-rule="nonzero"/></clipPath><clipPath id="92417bccec"><path d="M -50.183594 142.03125 L 266.507812 -41.441406 L 425.542969 233.070312 L 108.851562 416.542969 Z M -50.183594 142.03125 " clip-rule="nonzero"/></clipPath><clipPath id="d1da1c821e"><path d="M 120 95 L 255 95 L 255 280 L 120 280 Z M 120 95 " clip-rule="nonzero"/></clipPath><clipPath id="1b58d392e3"><path d="M -50.183594 142.03125 L 266.507812 -41.441406 L 425.542969 233.070312 L 108.851562 416.542969 Z M -50.183594 142.03125 " clip-rule="nonzero"/></clipPath><clipPath id="9bc2cd2f50"><path d="M -50.183594 142.03125 L 266.507812 -41.441406 L 425.542969 233.070312 L 108.851562 416.542969 Z M -50.183594 142.03125 " clip-rule="nonzero"/></clipPath></defs><g clip-path="url(#1af1ee8ca4)"><g clip-path="url(#06c400126b)"><g clip-path="url(#92417bccec)"><path fill="#1d46ff" d="M 39.945312 89.886719 L 163.757812 18.15625 L 163.859375 68.960938 L 163.789062 69 L 163.914062 156.359375 L 120.0625 181.765625 L 119.9375 94.40625 L 72.914062 121.644531 L 73.003906 187.6875 L 73.066406 228.359375 L 210.957031 148.472656 L 210.78125 56.15625 L 210.894531 56.1875 L 210.820312 18.25 L 254.800781 43.535156 L 254.820312 82.351562 L 254.75 82.394531 L 254.820312 84.140625 L 254.78125 94.128906 L 254.808594 123.066406 L 323.722656 83.144531 L 334.714844 89.464844 L 345.710938 95.789062 L 345.726562 108.472656 L 345.832031 187.195312 L 345.914062 187.335938 L 346.019531 266.058594 L 346.03125 278.742188 L 211.238281 356.832031 L 211.265625 318.742188 L 211.082031 218.628906 L 254.933594 193.222656 L 255.058594 280.582031 L 302.082031 253.34375 L 301.992188 187.304688 L 301.929688 146.628906 L 164.039062 226.515625 L 164.128906 306.1875 L 164.21875 356.808594 L 120.304688 331.484375 L 120.261719 318.910156 L 120.1875 251.921875 L 51.273438 291.84375 L 40.28125 285.523438 L 29.285156 279.203125 L 29.269531 266.519531 L 29.164062 187.796875 L 29.125 187.722656 L 28.976562 108.929688 L 28.964844 96.246094 Z M 39.945312 89.886719 " fill-opacity="1" fill-rule="evenodd"/></g></g></g><g clip-path="url(#d1da1c821e)"><g clip-path="url(#1b58d392e3)"><g clip-path="url(#9bc2cd2f50)"><path fill="#122da6" d="M 164.039062 226.515625 L 164.050781 253.960938 L 120.199219 279.367188 L 120.1875 251.921875 Z M 210.957031 148.472656 L 210.945312 121.027344 L 254.796875 95.621094 L 254.808594 123.066406 Z M 210.957031 148.472656 " fill-opacity="1" fill-rule="evenodd"/></g></g></g></svg>